<svg xmlns="http://www.w3.org/2000/svg" viewBox="0 0 280.66 65.46"><defs><style>.cls-1{fill:none;stroke:#30419b;stroke-miterlimit:10;stroke-width:9px;}.cls-2{fill:#30419b;}</style></defs><title>Asset 2</title><g id="Layer_2" data-name="Layer 2"><g id="Layer_2-2" data-name="Layer 2"><polyline class="cls-1" points="24.94 14.18 33.94 6.18 41.94 14.18"/><polyline class="cls-1" points="42.54 51.07 33.73 59.27 25.55 51.46"/><polyline class="cls-1" points="54.43 23.63 62.12 32.9 53.85 40.62"/><polyline class="cls-1" points="13.73 42.94 6.17 33.57 14.54 25.96"/><circle class="cls-2" cx="33.69" cy="31.93" r="10.75"/><path d="M112,49.6H90.38V16.28h21.44v4.95H96.39v9h12.4V35.1H96.39v9.33H112Z"/><path d="M143.19,49.6h-6.35l-5.18-13.7h-8.44V49.6h-6V16.28h14.45c4,0,7,.9,8.87,2.72a9.35,9.35,0,0,1,2.83,7,8.81,8.81,0,0,1-6,8.84Zm-20-18.5h7.47a7.27,7.27,0,0,0,4.83-1.37A4.7,4.7,0,0,0,137.11,26a4.46,4.46,0,0,0-1.56-3.55,6.44,6.44,0,0,0-4.37-1.36h-8Z"/><path d="M155.35,49.6h-6V16.28H163q5.83,0,8.65,2.94a9.69,9.69,0,0,1,2.82,6.94,9.64,9.64,0,0,1-3.05,7.4,10.91,10.91,0,0,1-7.74,2.83h-8.32Zm0-18.36h7.1a6,6,0,0,0,4.25-1.37,4.71,4.71,0,0,0,1.46-3.63,5,5,0,0,0-1.35-3.52c-.91-1-2.54-1.46-4.9-1.46h-6.56Z"/><path d="M180.18,43.2v6.4h-6V43.2Z"/><path d="M205.47,38l5.56.61a13,13,0,0,1-3.87,8.24,12,12,0,0,1-8.75,3.23A11.45,11.45,0,0,1,191,47.82a14.76,14.76,0,0,1-4.38-6.23,23.69,23.69,0,0,1-1.54-8.66q0-7.62,3.62-12.39a12.68,12.68,0,0,1,18.18-1.72q3.3,3,4.15,8.74l-5.56.58q-1.54-7.55-6.79-7.54a5.82,5.82,0,0,0-5.24,3.13q-1.86,3.15-1.86,9.1c0,4,.66,7.08,2,9.14a6.07,6.07,0,0,0,5.3,3.09A5.83,5.83,0,0,0,203.37,43,8.34,8.34,0,0,0,205.47,38Z"/><path d="M228.08,50.11a12.13,12.13,0,0,1-10.34-5,20,20,0,0,1-3.7-12.3A18.81,18.81,0,0,1,218,20.66a12.66,12.66,0,0,1,10.37-4.9,12.28,12.28,0,0,1,10.27,4.9,19.41,19.41,0,0,1,3.77,12.24q0,7.73-3.92,12.47A12.79,12.79,0,0,1,228.08,50.11Zm0-4.83a6.92,6.92,0,0,0,5.5-2.69c1.49-1.79,2.24-5,2.24-9.74q0-5.73-1.85-9a6.17,6.17,0,0,0-5.76-3.26q-7.73,0-7.72,12.42,0,6,2,9.15A6.27,6.27,0,0,0,228.12,45.28Z"/><path d="M280.66,49.6h-6.12V20.43L265.31,49.6h-3.15l-9.28-29.17V49.6H248V16.28h9.4l7,21.46,6.87-21.46h9.44Z"/></g></g></svg>